<svg id="Layer_3" data-name="Layer 3" xmlns="http://www.w3.org/2000/svg" viewBox="0 0 24 24">
  <title>logo2</title>
  <circle cx="12" cy="12" r="12" style="fill:#fff"/>
  <circle cx="12" cy="12.07" r="11.28" style="fill:#6eb1e2"/>
  <path d="M714.54,731H712.2v.59a4.81,4.81,0,0,1,.86,2.88c0,.17,0,.33,0,.49h.66a3.91,3.91,0,0,1,0-.49,4.81,4.81,0,0,1,.87-2.88Z" transform="translate(-701.37 -716.29)" style="fill:#37474f"/>
  <circle cx="12" cy="10.26" r="4.8" style="fill:#fff"/>
  <path d="M714.6,721.91a4.8,4.8,0,0,1-3.86,7.64,5.08,5.08,0,0,1-1.24-.16,4.8,4.8,0,1,0,5.1-7.48Z" transform="translate(-701.37 -716.29)" style="fill:#cfd8dc"/>
</svg>
